Coordinates
version=1
nRows=12
nColumns=24
inDegrees=yes

Units are S.I. units (second, meters, Newtons, ...)
Angles are in degrees.

endheader
time	pelvis_tilt	pelvis_list	pelvis_rotation	pelvis_tx	pelvis_ty	pelvis_tz	hip_flexion_r	hip_adduction_r	hip_rotation_r	knee_angle_r	ankle_angle_r	subtalar_angle_r	mtp_angle_r	hip_flexion_l	hip_adduction_l	hip_rotation_l	knee_angle_l	ankle_angle_l	subtalar_angle_l	mtp_angle_l	lumbar_extension	lumbar_bending	lumbar_rotation
      0.68316667	      7.58787761	     -5.57469041	      3.53575571	     -0.46499627	      1.01116917	      0.30914230	      1.35218692	     11.63127297	      0.82483608	    -14.31133017	      3.18547199	    -17.43139633	     -7.12027884	     13.41510301	     -5.92180565	      1.24765234	    -71.07608430	     -5.50711523	     -8.15557565	      0.89675941	     -9.52589026	      9.51689571	      1.60166391
      0.68733333	      7.66713233	     -5.39819202	      3.46558660	     -0.45972923	      1.01220300	      0.30928921	      0.66972376	     11.46120630	      0.95161458	    -13.85978233	      3.21674579	    -17.31437610	     -7.14760343	     13.91028497	     -5.65876775	      1.26613613	    -70.78874691	     -4.95718330	     -8.55638150	      0.80243071	     -9.67636942	      9.29721458	      1.75885664
      0.69150000	      7.67130520	     -5.24494743	      3.37268996	     -0.45446604	      1.01307758	      0.30945103	      0.09364743	     11.30847043	      1.07462550	    -13.45803075	      3.28792499	    -17.23016125	     -7.16119354	     14.47511835	     -5.42443423	      1.26658548	    -70.46018370	     -4.33650663	     -8.88010348	      0.75786025	     -9.71310807	      9.12164883	      1.84268257
      0.69566667	      7.69479723	     -5.09120554	      3.27166037	     -0.44920839	      1.01393615	      0.30963166	     -0.51046969	     11.15543175	      1.21733115	    -13.03801771	      3.34572682	    -17.13770410	     -7.17967783	     14.99517273	     -5.19949747	      1.24971631	    -70.06055998	     -3.75547160	     -9.19064926	      0.69861197	     -9.78418183	      8.91928413	      1.96763465
      0.69983333	      7.68514591	     -4.92845710	      3.15746096	     -0.44395368	      1.01471646	      0.30979319	     -1.06720829	     10.98519510	      1.37040580	    -12.64380174	      3.41953545	    -17.05069010	     -7.19420903	     15.52481609	     -4.95721110	      1.22987481	    -69.59219135	     -3.18284137	     -9.46994560	      0.65229496	     -9.81938100	      8.74381731	      2.08019411
      0.70400000	      7.75160248	     -4.77186535	      3.04030745	     -0.43867110	      1.01557663	      0.30999145	     -1.73411027	     10.82713609	      1.54777159	    -12.19248050	      3.47938871	    -16.96869134	     -7.23881846	     15.94054011	     -4.74789617	      1.17997310	    -69.04316962	     -2.66681546	     -9.71993036	      0.51773286	     -9.93716119	      8.54595685	      2.33068090
      0.70816667	      7.73683444	     -4.61725332	      2.88559535	     -0.43340718	      1.01624429	      0.31019813	     -2.26870031	     10.65759872	      1.71095545	    -11.83205945	      3.55285671	    -16.88689177	     -7.26350284	     16.42618719	     -4.54307284	      1.09367991	    -68.45206579	     -2.08959660	     -9.94845470	      0.44516110	     -9.95093172	      8.35945018	      2.43887981
      0.71233333	      7.75918016	     -4.46421976	      2.74752587	     -0.42814931	      1.01693095	      0.31038899	     -2.86422815	     10.49251669	      1.89908330	    -11.42334201	      3.63079828	    -16.80480864	     -7.31071761	     16.85057740	     -4.33990781	      1.02647448	    -67.79161733	     -1.58022253	    -10.14547625	      0.30829174	    -10.02987782	      8.16673202	      2.66083772
      0.71650000	      7.74668057	     -4.32657588	      2.58673031	     -0.42289554	      1.01749342	      0.31060563	     -3.40381607	     10.33728678	      2.09080482	    -11.04979258	      3.70930913	    -16.73478290	     -7.36404423	     17.29521010	     -4.16584953	      0.93235544	    -67.08621429	     -1.05775490	    -10.30726110	      0.15687084	    -10.06195918	      7.99275029	      2.85022284
      0.72066667	      7.74227583	     -4.18829210	      2.42491676	     -0.41763706	      1.01802941	      0.31080928	     -3.95008235	     10.17777993	      2.27774042	    -10.67697557	      3.78666416	    -16.66704354	     -7.41771592	     17.70546597	     -3.99344776	      0.83400986	    -66.31512287	     -0.55780616	    -10.45643160	      0.00648040	    -10.10094966	      7.81861862	      3.01877580
      0.72483333	      7.70231450	     -4.05576256	      2.23990794	     -0.41239912	      1.01844845	      0.31101707	     -4.43136304	     10.01547303	      2.46277162	    -10.35540549	      3.86331014	    -16.58553893	     -7.44464824	     18.13414081	     -3.83211505	      0.71617049	    -65.49387644	     -0.06081604	    -10.58667649	     -0.07071868	    -10.09663875	      7.66503992	      3.12600461
      0.72900000	      7.65920587	     -3.94225432	      2.06752527	     -0.40715671	      1.01878903	      0.31122236	     -4.91563445	      9.87387060	      2.65056631	    -10.01368644	      3.94829555	    -16.50839570	     -7.47386183	     18.55394771	     -3.69483662	      0.61174241	    -64.62812959	      0.39558957	    -10.68473160	     -0.15680859	    -10.09227073	      7.51685580	      3.28496949
